<svg width="16" height="17" viewBox="0 0 16 17" fill="none" xmlns="http://www.w3.org/2000/svg">
<path d="M8.00026 0.663335C9.62244 0.661203 11.1817 1.2907 12.3478 2.41847C13.5138 3.54623 14.1949 5.08365 14.2469 6.705L14.2503 6.91334V10.3275L15.4003 12.9575C15.4694 13.116 15.4981 13.2892 15.4836 13.4615C15.4691 13.6338 15.4119 13.7998 15.3172 13.9445C15.2226 14.0892 15.0933 14.208 14.9413 14.2903C14.7892 14.3726 14.619 14.4157 14.4461 14.4158L10.5003 14.4183C10.5011 15.0692 10.2481 15.6947 9.79506 16.1619C9.342 16.6292 8.72459 16.9013 8.07404 16.9205C7.4235 16.9397 6.7911 16.7045 6.31127 16.2648C5.83143 15.8251 5.54198 15.2156 5.50443 14.5658L5.50026 14.4158H1.56276C1.3901 14.4156 1.2202 14.3725 1.0683 14.2905C0.916412 14.2084 0.787287 14.0898 0.692526 13.9455C0.597766 13.8012 0.540336 13.6356 0.525395 13.4635C0.510454 13.2915 0.53847 13.1185 0.606926 12.96L1.75026 10.3283V6.91334C1.75026 3.45084 4.54359 0.663335 8.00026 0.663335ZM9.25026 14.4167L6.75026 14.4183C6.7502 14.7394 6.87371 15.0482 7.09517 15.2807C7.31663 15.5132 7.61906 15.6515 7.93977 15.6671C8.26048 15.6826 8.57487 15.5742 8.81777 15.3642C9.06067 15.1542 9.21344 14.8588 9.24443 14.5392L9.24943 14.4167H9.25026ZM8.00026 1.91334C5.23359 1.91334 3.00026 4.14167 3.00026 6.91334V10.5883L1.88026 13.1667H14.1278L13.0003 10.5892V6.92417L12.9969 6.73667C12.9536 5.44118 12.4079 4.21338 11.4754 3.31314C10.5428 2.4129 9.29647 1.91088 8.00026 1.91334Z" fill="white"/>
</svg>
