<svg width="20" height="20" viewBox="0 0 20 20" fill="none" xmlns="http://www.w3.org/2000/svg">
<g clip-path="url(#clip0_296_8059)">
<path d="M2.67159 7.35196C0.980773 10.2861 2.05566 14.7387 3.92543 17.4385C4.85874 18.7883 5.80366 19.9999 7.09789 19.9999C7.12228 19.9999 7.14674 19.9994 7.17179 19.9984C7.77985 19.9742 8.21926 19.787 8.64412 19.6061C9.1211 19.4028 9.61441 19.1926 10.3882 19.1926C11.1243 19.1926 11.5941 19.396 12.0484 19.5925C12.4961 19.7863 12.9573 19.9866 13.6387 19.9739C15.0966 19.9467 15.9917 18.6393 16.7814 17.4859C17.6054 16.2817 18.0188 15.1124 18.1583 14.6656L18.1639 14.6478C18.1905 14.5684 18.153 14.4817 18.0768 14.4468C18.0747 14.4458 18.067 14.4426 18.0648 14.4417C17.8081 14.3367 15.5562 13.3377 15.5325 10.6148C15.5105 8.40258 17.2219 7.23111 17.5651 7.01878L17.5811 7.00881C17.6183 6.98488 17.6442 6.94691 17.653 6.9035C17.6618 6.86015 17.6526 6.81504 17.6277 6.77858C16.4464 5.04993 14.6359 4.7894 13.907 4.75806C13.8012 4.7475 13.6921 4.74219 13.5824 4.74219C12.7263 4.74219 11.9061 5.06553 11.2473 5.32533C10.7924 5.50468 10.3996 5.65956 10.1286 5.65956C9.82418 5.65956 9.4291 5.50278 8.97159 5.32127C8.35979 5.07845 7.66635 4.8033 6.93225 4.8033C6.91474 4.8033 6.89749 4.8035 6.88051 4.80383C5.17363 4.82894 3.56077 5.80547 2.67159 7.35196Z" fill="white"/>
<path d="M13.9091 0.000125996C12.8755 0.0422244 11.6356 0.678487 10.8945 1.54655C10.2646 2.27619 9.64935 3.49272 9.81145 4.71895C9.82161 4.79567 9.88404 4.85488 9.96122 4.86085C10.031 4.86629 10.1022 4.86904 10.1731 4.86911C11.1838 4.86911 12.2741 4.30996 13.0187 3.40963C13.8024 2.45895 14.1986 1.23888 14.0788 0.146028C14.0693 0.0603883 13.994 -0.00321827 13.9091 0.000125996Z" fill="white"/>
</g>
<defs>
<clipPath id="clip0_296_8059">
<rect width="20" height="20" fill="white"/>
</clipPath>
</defs>
</svg>
