<svg width="20" height="20" viewBox="0 0 20 20" fill="none" xmlns="http://www.w3.org/2000/svg">
<path d="M1.66602 6.04232C1.66602 5.32402 1.95136 4.63515 2.45927 4.12724C2.96718 3.61933 3.65605 3.33398 4.37435 3.33398H15.6243C15.98 3.33398 16.3322 3.40404 16.6608 3.54014C16.9894 3.67625 17.2879 3.87574 17.5394 4.12724C17.7909 4.37873 17.9904 4.67729 18.1265 5.00588C18.2626 5.33447 18.3327 5.68665 18.3327 6.04232V8.33398H18.1177C18.064 7.5187 17.6923 6.7571 17.0827 6.21315V6.04232C17.0827 5.65554 16.929 5.28461 16.6555 5.01112C16.3821 4.73763 16.0111 4.58398 15.6243 4.58398H4.37435C3.98757 4.58398 3.61664 4.73763 3.34315 5.01112C3.06966 5.28461 2.91602 5.65554 2.91602 6.04232V6.25065H12.8743C12.5077 6.59148 12.2227 7.01898 12.0518 7.50065H2.91602V12.2923C2.91602 13.0973 3.56935 13.7507 4.37435 13.7507H10.0243C10.0743 14.1856 10.2052 14.6073 10.406 15.0007H4.37435C3.65605 15.0006 2.96718 14.7153 2.45927 14.2074C1.95136 13.6995 1.66602 13.0106 1.66602 12.2923V6.04232ZM19.166 12.9173C19.166 12.5858 19.0343 12.2679 18.7999 12.0334C18.5655 11.799 18.2475 11.6673 17.916 11.6673H12.0827C11.7512 11.6673 11.4332 11.799 11.1988 12.0334C10.9644 12.2679 10.8327 12.5858 10.8327 12.9173V13.334C10.8327 14.9765 12.3827 16.6673 14.9993 16.6673C17.616 16.6673 19.166 14.9765 19.166 13.334V12.9173ZM17.291 8.54232C17.291 7.93453 17.0496 7.35163 16.6198 6.92186C16.19 6.49209 15.6071 6.25065 14.9993 6.25065C14.3916 6.25065 13.8087 6.49209 13.3789 6.92186C12.9491 7.35163 12.7077 7.93453 12.7077 8.54232C12.7077 9.1501 12.9491 9.733 13.3789 10.1628C13.8087 10.5925 14.3916 10.834 14.9993 10.834C15.6071 10.834 16.19 10.5925 16.6198 10.1628C17.0496 9.733 17.291 9.1501 17.291 8.54232Z" fill="#2A549D"/>
</svg>
