<svg width="20" height="20" viewBox="0 0 20 20" fill="none" xmlns="http://www.w3.org/2000/svg">
<path d="M1.66797 6.04134C1.66797 5.32305 1.95331 4.63417 2.46122 4.12626C2.96913 3.61835 3.65801 3.33301 4.3763 3.33301H15.6263C15.982 3.33301 16.3341 3.40306 16.6627 3.53917C16.9913 3.67527 17.2899 3.87477 17.5414 4.12626C17.7929 4.37775 17.9924 4.67632 18.1285 5.00491C18.2646 5.3335 18.3346 5.68568 18.3346 6.04134V8.33301H18.1196C18.066 7.51773 17.6943 6.75613 17.0846 6.21217V6.04134C17.0846 5.65457 16.931 5.28363 16.6575 5.01014C16.384 4.73665 16.0131 4.58301 15.6263 4.58301H4.3763C3.98953 4.58301 3.6186 4.73665 3.3451 5.01014C3.07161 5.28363 2.91797 5.65457 2.91797 6.04134V6.24967H12.8763C12.5096 6.59051 12.2246 7.01801 12.0538 7.49967H2.91797V12.2913C2.91797 13.0963 3.5713 13.7497 4.3763 13.7497H10.0263C10.0763 14.1847 10.2071 14.6063 10.408 14.9997H4.3763C3.65801 14.9997 2.96913 14.7143 2.46122 14.2064C1.95331 13.6985 1.66797 13.0096 1.66797 12.2913V6.04134ZM19.168 12.9163C19.168 12.5848 19.0363 12.2669 18.8019 12.0325C18.5674 11.798 18.2495 11.6663 17.918 11.6663H12.0846C11.7531 11.6663 11.4352 11.798 11.2008 12.0325C10.9663 12.2669 10.8346 12.5848 10.8346 12.9163V13.333C10.8346 14.9755 12.3846 16.6663 15.0013 16.6663C17.618 16.6663 19.168 14.9755 19.168 13.333V12.9163ZM17.293 8.54134C17.293 7.93355 17.0515 7.35066 16.6218 6.92089C16.192 6.49112 15.6091 6.24967 15.0013 6.24967C14.3935 6.24967 13.8106 6.49112 13.3808 6.92089C12.9511 7.35066 12.7096 7.93355 12.7096 8.54134C12.7096 9.14913 12.9511 9.73202 13.3808 10.1618C13.8106 10.5916 14.3935 10.833 15.0013 10.833C15.6091 10.833 16.192 10.5916 16.6218 10.1618C17.0515 9.73202 17.293 9.14913 17.293 8.54134Z" fill="white"/>
</svg>
