<svg width="20" height="20" viewBox="0 0 20 20" fill="none" xmlns="http://www.w3.org/2000/svg">
<path d="M12.7111 1.66602C13.1723 1.66603 13.6173 1.83602 13.9611 2.14349C14.3048 2.45096 14.5232 2.87434 14.5744 3.33268H15.6311C15.9969 3.33291 16.3493 3.47063 16.6184 3.71853C16.8874 3.96643 17.0535 4.30641 17.0836 4.67102L17.0886 4.79102V7.29102C17.0886 7.9828 16.824 8.64837 16.3489 9.15121C15.8738 9.65404 15.2243 9.95602 14.5336 9.99518L14.3586 10.0002C14.0809 10.866 13.5628 11.6351 12.8648 12.2179C12.1668 12.8007 11.3176 13.1731 10.4161 13.2918V14.5827H11.8769C12.5686 14.5828 13.2339 14.8476 13.7366 15.3227C14.2392 15.7978 14.5411 16.4472 14.5803 17.1377L14.5853 17.291V17.7077C14.5852 17.8588 14.5304 18.0049 14.431 18.1187C14.3315 18.2325 14.1942 18.3065 14.0444 18.3268L13.9603 18.3327H5.62526C5.47409 18.3329 5.32796 18.2783 5.21397 18.179C5.09997 18.0797 5.02582 17.9425 5.00526 17.7927L5.00026 17.7077V17.291C5.0002 16.5994 5.26476 15.9339 5.73968 15.4311C6.21461 14.9283 6.8639 14.6262 7.55443 14.5868L7.70859 14.5827H9.16693V13.2918C8.26571 13.1728 7.41685 12.8002 6.71917 12.2175C6.02149 11.6347 5.5037 10.8658 5.22609 10.0002L5.20443 9.99935C4.48613 9.99935 3.79726 9.71401 3.28935 9.2061C2.78144 8.69818 2.49609 8.00931 2.49609 7.29102V4.79102C2.49609 3.98602 3.14943 3.33268 3.95443 3.33268H5.01109C5.06235 2.8742 5.28085 2.4507 5.62477 2.14321C5.9687 1.83572 6.41392 1.66582 6.87526 1.66602H12.7111ZM11.8778 15.8327H7.70859C7.37936 15.8325 7.05975 15.9438 6.80178 16.1483C6.5438 16.3529 6.36264 16.6387 6.28776 16.9593L6.26443 17.0827H13.3211C13.2741 16.7574 13.1185 16.4574 12.8797 16.2316C12.6408 16.0058 12.3327 15.8673 12.0053 15.8385L11.8778 15.8327ZM12.7111 2.91602H6.87526C6.7095 2.91602 6.55053 2.98186 6.43332 3.09907C6.31611 3.21628 6.25026 3.37526 6.25026 3.54102V8.53935C6.26453 9.46958 6.64407 10.3569 7.30695 11.0097C7.96982 11.6624 8.86284 12.0283 9.79318 12.0283C10.7235 12.0283 11.6165 11.6624 12.2794 11.0097C12.9423 10.3569 13.3218 9.46958 13.3361 8.53935V3.54102C13.3361 3.37526 13.2702 3.21628 13.153 3.09907C13.0358 2.98186 12.8769 2.91602 12.7111 2.91602ZM15.6311 4.58268H14.5861V8.73518C14.912 8.68886 15.2127 8.53362 15.4392 8.29471C15.6657 8.0558 15.8047 7.74729 15.8336 7.41935L15.8394 7.29102V4.79102C15.8394 4.74408 15.8234 4.69854 15.7942 4.66179C15.765 4.62504 15.7243 4.59922 15.6786 4.58852L15.6311 4.58268ZM5.00026 4.58268H3.95443C3.89917 4.58268 3.84618 4.60463 3.80711 4.6437C3.76804 4.68277 3.74609 4.73576 3.74609 4.79102V7.29102C3.74605 7.64245 3.87291 7.98209 4.10335 8.24743C4.33378 8.51278 4.65228 8.68598 5.00026 8.73518V4.58268Z" fill="#2A549D"/>
</svg>
