<svg width="20" height="20" viewBox="0 0 20 20" fill="none" xmlns="http://www.w3.org/2000/svg">
<path d="M15.4173 16.666C15.4173 16.7765 15.3734 16.8825 15.2953 16.9606C15.2171 17.0388 15.1112 17.0827 15.0007 17.0827H5.00065C4.89014 17.0827 4.78416 17.0388 4.70602 16.9606C4.62788 16.8825 4.58398 16.7765 4.58398 16.666V3.33268C4.58398 3.22218 4.62788 3.11619 4.70602 3.03805C4.78416 2.95991 4.89014 2.91602 5.00065 2.91602H10.0007V6.66602C10.0007 7.10804 10.1762 7.53197 10.4888 7.84453C10.8014 8.15709 11.2253 8.33268 11.6673 8.33268H15.4173V16.666ZM11.2507 3.85018L14.4823 7.08268H11.6673C11.5568 7.08268 11.4508 7.03878 11.3727 6.96064C11.2945 6.8825 11.2507 6.77652 11.2507 6.66602V3.85018ZM16.179 7.01102L11.3215 2.15435C11.2998 2.13268 11.2732 2.11602 11.2507 2.09602C11.1933 2.04191 11.1323 1.99179 11.0682 1.94602C11.0348 1.92352 10.9965 1.90852 10.9615 1.88935C10.9023 1.85602 10.844 1.81935 10.7815 1.79268C10.6155 1.7264 10.4399 1.68756 10.2615 1.67768C10.2223 1.67518 10.184 1.66602 10.144 1.66602H5.00065C4.55862 1.66602 4.1347 1.84161 3.82214 2.15417C3.50958 2.46673 3.33398 2.89065 3.33398 3.33268V16.666C3.33398 17.108 3.50958 17.532 3.82214 17.8445C4.1347 18.1571 4.55862 18.3327 5.00065 18.3327H15.0007C15.4427 18.3327 15.8666 18.1571 16.1792 17.8445C16.4917 17.532 16.6673 17.108 16.6673 16.666V8.18935C16.6672 7.74736 16.4916 7.3235 16.179 7.01102Z" fill="#2A549D"/>
</svg>
