<svg width="20" height="20" viewBox="0 0 20 20" fill="none" xmlns="http://www.w3.org/2000/svg">
<path d="M6.83852 3.33398C7.22185 3.33398 7.59518 3.45148 7.90852 3.66898L8.03852 3.76898L10.0177 5.41732H16.4577C16.91 5.41717 17.3472 5.58055 17.6885 5.87735C18.0299 6.17415 18.2525 6.58434 18.3152 7.03232L18.3285 7.16398L18.3327 7.29232V14.7923C18.3327 15.2674 18.1524 15.7248 17.8282 16.0721C17.504 16.4194 17.06 16.6306 16.586 16.6632L16.4577 16.6673H3.54102C3.06591 16.6674 2.6085 16.4871 2.26122 16.1628C1.91394 15.8386 1.7027 15.3946 1.67018 14.9206L1.66602 14.7923V5.20898C1.66596 4.73388 1.84626 4.27647 2.17049 3.92919C2.49472 3.58191 2.93869 3.37067 3.41268 3.33815L3.54102 3.33398H6.83852ZM8.03852 8.31648C7.74456 8.5611 7.38283 8.70997 7.00185 8.74315L6.83852 8.75065L2.91602 8.74982V14.7923C2.91602 15.109 3.15102 15.3707 3.45602 15.4115L3.54102 15.4173H16.4577C16.6087 15.4173 16.7546 15.3626 16.8685 15.2633C16.9823 15.1641 17.0563 15.0269 17.0768 14.8773L17.0827 14.7923V7.29232C17.0827 7.14129 17.028 6.99537 16.9287 6.88154C16.8294 6.76772 16.6923 6.69369 16.5427 6.67315L16.4577 6.66732H10.0168L8.03852 8.31648ZM6.83852 4.58398H3.54102C3.38998 4.58399 3.24406 4.63869 3.13024 4.73796C3.01642 4.83723 2.94239 4.97436 2.92185 5.12398L2.91602 5.20898V7.49982L6.83852 7.50065C6.95486 7.50051 7.06886 7.4679 7.16768 7.40648L7.23852 7.35648L8.81435 6.04148L7.23935 4.72898C7.14969 4.65415 7.04085 4.60594 6.92518 4.58982L6.83852 4.58398Z" fill="#2A549D"/>
</svg>
