<svg width="20" height="20" viewBox="0 0 20 20" fill="none" xmlns="http://www.w3.org/2000/svg">
<path d="M13.125 1.66602C13.6223 1.66602 14.0992 1.86356 14.4508 2.21519C14.8025 2.56682 15 3.04373 15 3.54102V16.4577C15 16.955 14.8025 17.4319 14.4508 17.7835C14.0992 18.1351 13.6223 18.3327 13.125 18.3327H6.875C6.37772 18.3327 5.90081 18.1351 5.54917 17.7835C5.19754 17.4319 5 16.955 5 16.4577V3.54102C5 3.04373 5.19754 2.56682 5.54917 2.21519C5.90081 1.86356 6.37772 1.66602 6.875 1.66602H13.125ZM13.125 2.91602H6.875C6.70924 2.91602 6.55027 2.98186 6.43306 3.09907C6.31585 3.21628 6.25 3.37526 6.25 3.54102V16.4577C6.25 16.8027 6.53 17.0827 6.875 17.0827H13.125C13.2908 17.0827 13.4497 17.0168 13.5669 16.8996C13.6842 16.7824 13.75 16.6234 13.75 16.4577V3.54102C13.75 3.37526 13.6842 3.21628 13.5669 3.09907C13.4497 2.98186 13.2908 2.91602 13.125 2.91602ZM11.0408 14.5827C11.2066 14.5825 11.3657 14.6481 11.483 14.7652C11.6004 14.8822 11.6664 15.0411 11.6667 15.2069C11.6669 15.3726 11.6013 15.5317 11.4842 15.649C11.3671 15.7664 11.2083 15.8325 11.0425 15.8327L8.95917 15.836C8.79341 15.8362 8.63435 15.7706 8.51698 15.6535C8.39961 15.5365 8.33355 15.3776 8.33333 15.2118C8.33311 15.0461 8.39875 14.887 8.5158 14.7697C8.63286 14.6523 8.79174 14.5862 8.9575 14.586L11.0408 14.5827Z" fill="#2A549D"/>
</svg>
