<svg width="20" height="20" viewBox="0 0 20 20" fill="none" xmlns="http://www.w3.org/2000/svg">
<path d="M4.38838 8.13711C5.16553 5.78219 7.37859 4.09091 9.99988 4.09091C11.409 4.09091 12.6817 4.59091 13.6817 5.40909L16.5908 2.5C14.8181 0.954545 12.5453 0 9.99988 0C6.05827 0 2.66467 2.24858 1.0332 5.54169L4.38838 8.13711Z" fill="#EA4335"/>
<path d="M13.3673 15.0112C12.4591 15.5976 11.3051 15.9098 10 15.9098C7.38877 15.9098 5.18263 14.2315 4.39752 11.8906L1.03125 14.4466C2.66069 17.7454 6.0542 20.0007 10 20.0007C12.4441 20.0007 14.7795 19.1319 16.5285 17.5004L13.3673 15.0112Z" fill="#34A853"/>
<path d="M16.5285 17.4995C18.3576 15.7932 19.5455 13.2529 19.5455 9.99982C19.5455 9.40891 19.4545 8.77255 19.3182 8.18164H10V12.0453H15.3636C15.099 13.3445 14.3886 14.3508 13.3673 15.0103L16.5285 17.4995Z" fill="#4A90E2"/>
<path d="M4.39748 11.8892C4.19861 11.2963 4.09091 10.6608 4.09091 9.99933C4.09091 9.34789 4.19536 8.72167 4.3885 8.13644L1.03333 5.54102C0.363823 6.88302 0 8.39548 0 9.99933C0 11.599 0.370651 13.1078 1.03122 14.4452L4.39748 11.8892Z" fill="#FBBC05"/>
</svg>
